<svg width="41" height="40" viewBox="0 0 41 40" fill="none" xmlns="http://www.w3.org/2000/svg">
<path d="M28.0267 11.3133V1.86521C28.0267 1.38069 27.6431 1 27.1548 1H19.448C18.9598 1 18.5762 1.38069 18.5762 1.86521V9.89437C18.5762 10.2058 18.7505 10.5173 19.0644 10.6558C23.5978 12.9053 27.2943 16.5738 29.5611 21.0729C29.7005 21.3498 30.0144 21.5574 30.3283 21.5574H38.4885C38.9767 21.5574 39.3603 21.1767 39.3603 20.6922V13.0437C39.3603 12.5592 38.9767 12.1785 38.4885 12.1785H28.8985C28.4103 12.1785 28.0267 11.7978 28.0267 11.3133Z" fill="#E6ECF6"/>
<path d="M30.5023 31.5591C30.5023 28.1329 29.7002 24.5682 28.2704 21.6611C28.2704 21.6611 28.2007 21.5227 28.1309 21.5573C28.1309 21.5573 28.0263 21.5573 28.0263 21.7303V24.6028C28.0263 24.672 28.0263 24.7413 28.0263 24.8105V27.856V31.8014C28.0263 32.2859 27.6427 32.6666 27.1545 32.6666H19.4476C18.9594 32.6666 18.5758 32.2859 18.5758 31.8014V22.4571C18.5758 21.9726 18.1922 21.5919 17.704 21.5919H8.07915C7.59093 21.5919 7.20733 21.2112 7.20733 20.7267V13.0436C7.20733 12.5591 7.59093 12.1784 8.07915 12.1784H15.3327H15.3675H18.0876C18.2271 12.1784 18.262 12.0746 18.262 12.0746C18.262 11.9707 18.1573 11.9361 18.1573 11.9361C15.228 10.5172 11.9849 9.72119 8.49762 9.72119C6.64937 9.72119 4.87086 9.96345 3.1621 10.3788C2.22054 10.621 1.52309 11.3478 1.34873 12.2822C1.24411 12.9398 1.13949 13.6319 1.06975 14.3241C1.03487 14.9817 1 15.6392 1 16.2968C1 22.5609 3.5457 28.2367 7.69555 32.3551C11.8454 36.4735 17.5645 38.9999 23.8765 38.9999C24.539 38.9999 25.2016 38.9653 25.8293 38.8961C26.5268 38.8269 27.2242 38.7577 27.8868 38.6192C28.8284 38.4462 29.5607 37.754 29.8048 36.8196C30.2581 35.1584 30.5023 33.3588 30.5023 31.5591Z" fill="white"/>
</svg>
