<svg width="138" height="138" viewBox="0 0 138 138" fill="none" xmlns="http://www.w3.org/2000/svg">
<circle cx="69" cy="69" r="69" fill="#89C93D"/>
<rect x="28" y="29" width="89" height="90" rx="44.5" fill="#89C93D"/>
<path d="M81.3874 53.4001V31.0593C81.3879 30.789 81.3357 30.5213 81.234 30.2715C81.1323 30.0217 80.9829 29.7946 80.7945 29.6034C80.606 29.4121 80.3822 29.2604 80.1359 29.1568C79.8895 29.0533 79.6254 29 79.3587 29H61.4812C61.2145 29 60.9504 29.0533 60.7041 29.1568C60.4577 29.2604 60.2339 29.4121 60.0455 29.6034C59.8571 29.7946 59.7077 30.0217 59.606 30.2715C59.5042 30.5213 59.4521 30.789 59.4525 31.0593V50.067C59.4511 50.446 59.5535 50.818 59.7483 51.1416C59.9431 51.4652 60.2227 51.7277 60.5559 51.8998C71.0932 57.2454 79.6389 65.9051 84.914 76.583C85.0827 76.9209 85.341 77.2045 85.6598 77.402C85.9787 77.5995 86.3456 77.703 86.7193 77.701H105.669C106.207 77.7011 106.723 77.4846 107.104 77.0991C107.485 76.7137 107.7 76.1908 107.701 75.6453V57.5292C107.7 56.9837 107.485 56.4608 107.104 56.0754C106.723 55.69 106.207 55.4735 105.669 55.4735H83.4196C83.1517 55.473 82.8865 55.419 82.6392 55.3144C82.392 55.2099 82.1675 55.0569 81.9787 54.8643C81.7899 54.6717 81.6405 54.4432 81.539 54.1919C81.4376 53.9406 81.386 53.6715 81.3874 53.4001Z" fill="#13489E"/>
<path d="M87.097 101.372C87.097 93.2342 85.2185 84.8131 81.9188 77.9594C81.9188 77.9594 81.7897 77.6374 81.5871 77.7153C81.5871 77.7153 81.3811 77.7401 81.3846 78.1116V84.8839C81.3846 85.036 81.4021 85.1882 81.4021 85.3403V101.942C81.4021 102.487 81.1883 103.01 80.8079 103.396C80.4274 103.781 79.9114 103.998 79.3734 103.998H61.5063C61.2383 103.998 60.9728 103.944 60.7252 103.84C60.4776 103.736 60.2526 103.583 60.0632 103.391C59.8738 103.199 59.7237 102.971 59.6214 102.72C59.5191 102.469 59.4667 102.199 59.4672 101.928V79.7887C59.4672 79.2407 59.2523 78.7151 58.8699 78.3276C58.4875 77.9401 57.9688 77.7224 57.428 77.7224H35.137C34.599 77.7224 34.0829 77.5058 33.7025 77.1202C33.322 76.7347 33.1083 76.2118 33.1083 75.6666V57.547C33.1074 57.0005 33.3205 56.476 33.7008 56.0886C34.0812 55.7012 34.5977 55.4825 35.137 55.4807H51.9426H52.0473H58.3324C58.6816 55.4807 58.7165 55.2507 58.7165 55.2507C58.7549 55.0171 58.4755 54.9145 58.4755 54.9145C51.5106 51.4604 43.8585 49.6655 36.1042 49.6672C31.9325 49.6656 27.7765 50.1838 23.7296 51.2099C22.6764 51.4703 21.7203 52.0343 20.9767 52.8336C20.2331 53.633 19.734 54.6335 19.5395 55.7142C19.2637 57.3135 19.0612 58.934 18.9215 60.5758C18.7888 62.1008 18.7015 63.6364 18.7015 65.1933C18.7015 79.4594 24.2925 93.1417 34.245 103.232C44.1976 113.322 57.6971 118.994 71.7754 119C73.3118 119 74.8237 118.912 76.3147 118.777C77.9441 118.64 79.5445 118.432 81.1158 118.151C82.1819 117.953 83.1688 117.447 83.9575 116.694C84.7461 115.94 85.3029 114.972 85.5607 113.905C86.5776 109.807 87.0935 105.598 87.097 101.372Z" fill="white"/>
</svg>
