<svg width="123" height="40" viewBox="0 0 123 40" fill="none" xmlns="http://www.w3.org/2000/svg">
<path d="M28.0267 11.3133V1.86521C28.0267 1.38069 27.6431 1 27.1548 1H19.448C18.9598 1 18.5762 1.38069 18.5762 1.86521V9.89437C18.5762 10.2058 18.7505 10.5173 19.0644 10.6558C23.5978 12.9053 27.2943 16.5738 29.5611 21.0729C29.7005 21.3498 30.0144 21.5574 30.3283 21.5574H38.4885C38.9767 21.5574 39.3603 21.1767 39.3603 20.6922V13.0437C39.3603 12.5592 38.9767 12.1785 38.4885 12.1785H28.8985C28.4103 12.1785 28.0267 11.7978 28.0267 11.3133Z" fill="#E6ECF6"/>
<path d="M30.5023 31.5591C30.5023 28.1329 29.7002 24.5682 28.2704 21.6611C28.2704 21.6611 28.2007 21.5227 28.1309 21.5573C28.1309 21.5573 28.0263 21.5573 28.0263 21.7303V24.6028C28.0263 24.672 28.0263 24.7413 28.0263 24.8105V27.856V31.8014C28.0263 32.2859 27.6427 32.6666 27.1545 32.6666H19.4476C18.9594 32.6666 18.5758 32.2859 18.5758 31.8014V22.4571C18.5758 21.9726 18.1922 21.5919 17.704 21.5919H8.07915C7.59093 21.5919 7.20733 21.2112 7.20733 20.7267V13.0436C7.20733 12.5591 7.59093 12.1784 8.07915 12.1784H15.3327H15.3675H18.0876C18.2271 12.1784 18.262 12.0746 18.262 12.0746C18.262 11.9707 18.1573 11.9361 18.1573 11.9361C15.228 10.5172 11.9849 9.72119 8.49762 9.72119C6.64937 9.72119 4.87086 9.96345 3.1621 10.3788C2.22054 10.621 1.52309 11.3478 1.34873 12.2822C1.24411 12.9398 1.13949 13.6319 1.06975 14.3241C1.03487 14.9817 1 15.6392 1 16.2968C1 22.5609 3.5457 28.2367 7.69555 32.3551C11.8454 36.4735 17.5645 38.9999 23.8765 38.9999C24.539 38.9999 25.2016 38.9653 25.8293 38.8961C26.5268 38.8269 27.2242 38.7577 27.8868 38.6192C28.8284 38.4462 29.5607 37.754 29.8048 36.8196C30.2581 35.1584 30.5023 33.3588 30.5023 31.5591Z" fill="white"/>
<path d="M45.5845 5.04267C45.8995 4.62802 46.2846 4.28248 46.7396 4.0406C47.1947 3.79872 47.7197 3.66051 48.3498 3.66051C48.7348 3.66051 49.1198 3.69506 49.4349 3.79872C49.7499 3.90239 49.9949 4.00605 50.1699 4.10971L50.415 4.24793L51.045 2.93488L50.8 2.76211C50.485 2.58934 50.0999 2.41657 49.6449 2.31291C49.1898 2.20924 48.6298 2.14014 48.0347 2.14014C47.1947 2.14014 46.4596 2.31291 45.7595 2.62389C45.0945 2.96943 44.4994 3.38408 44.0444 3.93694C43.5893 4.4898 43.2043 5.14633 42.9593 5.87196C42.7142 6.59759 42.5742 7.39233 42.5742 8.18707C42.5742 9.01636 42.7142 9.8111 42.9593 10.5367C43.2043 11.2624 43.5893 11.9189 44.0794 12.4718C44.5694 13.0246 45.1295 13.4738 45.8295 13.7848C46.4946 14.0958 47.2647 14.2686 48.1047 14.2686C48.6648 14.2686 49.1898 14.1995 49.6799 14.0958C50.1699 13.9576 50.555 13.8194 50.835 13.6466L51.045 13.5084L50.415 12.1953L50.1699 12.299C49.9599 12.4026 49.6799 12.5063 49.3999 12.5754C49.1198 12.6445 48.7698 12.6791 48.3848 12.6791C47.8247 12.6791 47.2997 12.5409 46.8446 12.299C46.3896 12.0571 46.0045 11.7116 45.6895 11.3315C45.3745 10.9168 45.1295 10.4331 44.9544 9.88021C44.7794 9.32735 44.7094 8.73993 44.7094 8.15252C44.7094 7.5651 44.7794 7.01224 44.9544 6.45938C45.0245 5.94107 45.2695 5.45731 45.5845 5.04267Z" fill="white"/>
<path d="M54.2297 1.03442H52.2695V14.0267H54.2297V1.03442Z" fill="white"/>
<path d="M58.0813 4.76611H56.1211V14.0266H58.0813V4.76611Z" fill="white"/>
<path d="M59.4464 1.10338C59.1664 0.999719 58.7813 0.999719 58.3963 1.10338C58.2213 1.13793 58.0113 1.2416 57.8713 1.34526L57.8363 1.37981L56.1211 3.97136H57.5212L59.9365 1.65624L59.8314 1.44892C59.7614 1.3107 59.6564 1.17249 59.4464 1.10338Z" fill="white"/>
<path d="M66.6562 5.18056C66.2711 4.97324 65.8161 4.80047 65.3261 4.69681C64.836 4.59315 64.311 4.55859 63.7509 4.55859C63.0508 4.55859 62.3508 4.6277 61.7207 4.73136C61.0907 4.83503 60.5306 5.00779 60.1106 5.18056L59.9355 5.24967V14.0609H61.8957V6.18263C62.0707 6.11352 62.2808 6.07897 62.5258 6.00986C63.1559 5.9062 63.8559 5.87164 64.486 6.00986C64.766 6.07897 65.011 6.14807 65.2561 6.28629C65.4661 6.4245 65.6411 6.56272 65.7811 6.77004C65.9211 6.94281 65.9561 7.18469 65.9561 7.46112V14.0609H67.8813V7.39201C67.8813 6.87371 67.7763 6.42451 67.5313 6.04441C67.3563 5.69887 67.0412 5.38789 66.6562 5.18056Z" fill="white"/>
<path d="M76.1427 6.90863C76.3527 6.6322 76.6327 6.39033 76.9828 6.21756C77.2978 6.04479 77.7178 5.97568 78.1379 5.97568C78.4879 5.97568 78.8029 6.01023 79.0479 6.11389C79.328 6.21756 79.503 6.28666 79.643 6.39033L79.888 6.56309L80.4831 5.31915L80.3081 5.18094C80.063 5.00817 79.748 4.86995 79.363 4.73174C78.9429 4.59352 78.4179 4.52441 77.8228 4.52441C77.1928 4.52441 76.6327 4.62808 76.1077 4.86995C75.5826 5.07728 75.0926 5.42282 74.7075 5.83746C74.3225 6.25211 74.0075 6.77042 73.7974 7.35783C73.5874 7.94525 73.4824 8.63633 73.4824 9.36196C73.4824 10.0876 73.5874 10.7787 73.7974 11.3661C74.0075 11.9535 74.3225 12.4718 74.7075 12.8865C75.0926 13.3011 75.5476 13.6466 76.0727 13.854C76.5977 14.0958 77.1578 14.1995 77.7878 14.1995C78.4179 14.1995 78.9429 14.1304 79.363 13.9922C79.783 13.854 80.1331 13.7158 80.3431 13.543L80.4831 13.4739L79.888 12.1608L79.643 12.3336C79.468 12.4373 79.223 12.5409 78.9779 12.6446C78.7329 12.7482 78.4179 12.7828 78.0679 12.7828C77.6828 12.7828 77.2978 12.7137 76.9828 12.5409C76.6677 12.3682 76.3877 12.1608 76.1427 11.8498C75.8977 11.5389 75.7226 11.1933 75.5826 10.7787C75.4426 10.364 75.3726 9.88027 75.3726 9.36196C75.3726 8.87821 75.4426 8.39445 75.5476 7.97981C75.7226 7.56516 75.8977 7.18507 76.1427 6.90863Z" fill="white"/>
<path d="M88.778 6.21754C88.568 5.80289 88.2879 5.49191 87.9379 5.25003C87.5879 5.00815 87.1678 4.83538 86.7128 4.73172C86.2577 4.62806 85.7677 4.59351 85.2776 4.59351C84.6126 4.59351 83.9825 4.66261 83.3875 4.80083C82.8274 4.93904 82.3724 5.07726 82.0573 5.21548L81.8123 5.31914L82.4074 6.59763L82.6524 6.49397C82.9324 6.39031 83.2825 6.25209 83.7375 6.14843C84.5426 5.97566 85.3477 5.97566 86.0127 6.07932C86.2927 6.14843 86.5028 6.21754 86.7128 6.35576C86.8878 6.49397 87.0278 6.63219 87.1328 6.83951C87.2378 7.04683 87.3078 7.28871 87.3078 7.5997V7.91068C86.5728 7.97979 85.8727 8.08345 85.2076 8.18711C84.4726 8.32533 83.8075 8.53265 83.2474 8.77453C82.6524 9.05096 82.1973 9.3965 81.8473 9.81115C81.4973 10.2603 81.3223 10.8132 81.3223 11.4697C81.3223 12.3336 81.6723 13.0247 82.3724 13.543C83.0374 14.0613 84.0525 14.3032 85.4877 14.3032C86.2227 14.3032 86.8878 14.234 87.4829 14.1304C88.0779 14.0267 88.603 13.854 89.023 13.6812L89.163 13.6121V7.6688C89.093 7.08139 88.988 6.59763 88.778 6.21754ZM87.2378 9.05096V12.6791C87.0628 12.7482 86.8528 12.8173 86.6078 12.8519C86.2927 12.921 85.9427 12.9556 85.5577 12.9556C84.7876 12.9556 84.1925 12.8173 83.7725 12.5409C83.3875 12.299 83.1774 11.9189 83.1774 11.3661C83.1774 10.9514 83.2825 10.6059 83.4575 10.364C83.6325 10.0876 83.9125 9.88025 84.2975 9.70749C84.6826 9.53472 85.1376 9.3965 85.6977 9.29284C86.1527 9.18918 86.6778 9.12007 87.2378 9.05096Z" fill="white"/>
<path d="M71.7668 4.76611H69.8066V14.0266H71.7668V4.76611Z" fill="white"/>
<path d="M70.7864 1.86353C70.5064 1.86353 70.2264 1.96719 70.0514 2.17451C69.8413 2.38183 69.7363 2.62371 69.7363 2.9347C69.7363 3.21113 69.8413 3.48756 70.0514 3.69488C70.2614 3.90221 70.5064 4.00587 70.7864 4.00587C71.0665 4.00587 71.3465 3.90221 71.5215 3.69488C71.7315 3.48756 71.8365 3.24568 71.8365 2.9347C71.8365 2.65827 71.7315 2.38183 71.5215 2.17451C71.3465 1.96719 71.0665 1.86353 70.7864 1.86353Z" fill="white"/>
<path d="M49.0832 22.8725C48.6632 22.6306 48.1731 22.4233 47.6831 22.2505C47.193 22.1123 46.773 21.9395 46.3529 21.7667C45.9679 21.594 45.6529 21.3866 45.4078 21.1448C45.1978 20.9374 45.0578 20.661 45.0578 20.2809C45.0578 19.7281 45.2678 19.3134 45.6529 18.9679C46.0729 18.6223 46.633 18.4496 47.333 18.4496C47.7531 18.4496 48.1731 18.5187 48.5581 18.6223C48.9432 18.726 49.2232 18.8296 49.4332 18.9679L49.6782 19.1061L50.3083 17.7585L50.0983 17.6548C49.8183 17.482 49.3982 17.3438 48.9082 17.2056C48.3831 17.0674 47.7881 16.9983 47.158 16.9983C46.5279 16.9983 45.9679 17.102 45.4428 17.2747C44.9178 17.4475 44.4978 17.6894 44.1477 18.0004C43.7977 18.3113 43.4827 18.6914 43.3076 19.0715C43.0976 19.4862 42.9926 19.9354 42.9926 20.3846C42.9926 21.0411 43.1326 21.5594 43.4477 21.9741C43.7277 22.3541 44.1127 22.6651 44.5678 22.907C44.9878 23.1489 45.4428 23.3562 45.9679 23.4944C46.4229 23.6326 46.878 23.8054 47.263 24.0127C47.6481 24.1855 47.9631 24.3928 48.2081 24.6347C48.4181 24.842 48.5231 25.153 48.5231 25.5677C48.5231 25.8441 48.4531 26.1205 48.3481 26.3624C48.2081 26.6043 48.0331 26.8116 47.8231 26.9844C47.578 27.1571 47.298 27.2954 46.983 27.399C46.668 27.5027 46.2829 27.5372 45.9329 27.5372C45.4428 27.5372 44.9878 27.4681 44.5678 27.3645C44.1477 27.2608 43.7977 27.1226 43.5527 27.0189L43.3076 26.8807L42.6426 28.332L42.8526 28.4356C43.2026 28.6084 43.6577 28.7466 44.2177 28.8848C44.7778 29.0231 45.4428 29.0576 46.1429 29.0576C46.773 29.0576 47.368 28.9539 47.8931 28.7812C48.4181 28.6084 48.9082 28.3665 49.2932 28.0555C49.6782 27.7446 49.9933 27.3645 50.2383 26.9153C50.4833 26.4661 50.5883 25.9823 50.5883 25.464C50.5883 24.8075 50.4483 24.2546 50.1333 23.84C49.8883 23.4599 49.5382 23.1143 49.0832 22.8725Z" fill="#E6ECF6"/>
<path d="M58.3949 20.0733C58.0449 19.8314 57.6249 19.6586 57.1698 19.555C56.7148 19.4513 56.2247 19.4167 55.7347 19.4167C55.0696 19.4167 54.4395 19.4859 53.8445 19.6241C53.2844 19.7623 52.8294 19.9005 52.5144 20.0387L52.2693 20.1424L52.8644 21.4209L53.1094 21.3172C53.3895 21.2136 53.7395 21.0753 54.1945 20.9717C54.9996 20.7989 55.8047 20.7989 56.4697 20.9026C56.7498 20.9717 56.9598 21.0408 57.1698 21.179C57.3448 21.3172 57.4848 21.4554 57.5899 21.6628C57.6949 21.8701 57.7649 22.112 57.7649 22.4229V22.7339C57.0298 22.803 56.3297 22.9067 55.6647 23.0104C54.9296 23.1486 54.2645 23.3559 53.7045 23.5978C53.1094 23.8742 52.6544 24.2197 52.3043 24.6344C51.9543 25.0836 51.7793 25.6365 51.7793 26.293C51.7793 27.1568 52.1293 27.8479 52.8294 28.3662C53.4945 28.8845 54.5096 29.1264 55.9447 29.1264C56.6798 29.1264 57.3448 29.0573 57.9399 28.9536C58.5349 28.85 59.06 28.6772 59.48 28.5044L59.62 28.4353V22.5266C59.62 21.9737 59.515 21.4554 59.305 21.0753C59.06 20.6607 58.78 20.3151 58.3949 20.0733ZM57.6949 23.9088V27.5369C57.5198 27.606 57.3098 27.6751 57.0648 27.7097C56.7498 27.7788 56.3997 27.8133 56.0147 27.8133C55.2446 27.8133 54.6496 27.6751 54.2295 27.3987C53.8445 27.1568 53.6345 26.7767 53.6345 26.2239C53.6345 25.8092 53.7395 25.4637 53.9145 25.2218C54.0895 24.9454 54.3695 24.738 54.7546 24.5653C55.1396 24.3925 55.5947 24.2543 56.1547 24.1506C56.6098 24.047 57.1348 23.9779 57.6949 23.9088Z" fill="#E6ECF6"/>
<path d="M68.1601 20.0043C67.7751 19.797 67.32 19.6242 66.83 19.5205C66.3399 19.4169 65.8149 19.3823 65.2548 19.3823C64.5547 19.3823 63.8547 19.4514 63.2246 19.5551C62.5946 19.6588 62.0345 19.8315 61.6145 20.0043L61.4395 20.0734V28.8847H63.3996V21.0064C63.5747 20.9373 63.7847 20.9027 64.0297 20.8336C64.6598 20.7299 65.3598 20.6954 65.9899 20.8336C66.2699 20.9027 66.5149 20.9718 66.76 21.11C66.97 21.2482 67.145 21.3865 67.285 21.5938C67.425 21.7665 67.46 22.0084 67.46 22.2849V28.8847H69.3852V22.2503C69.3852 21.732 69.2802 21.2828 69.0352 20.9027C68.8602 20.5572 68.5451 20.2462 68.1601 20.0043Z" fill="#E6ECF6"/>
<path d="M74.0762 28.8846H76.1064V22.9759H80.3418V21.5592H76.1064V17.7928H80.9368V16.4106H74.0762V28.8846Z" fill="#E6ECF6"/>
<path d="M86.1171 19.4167C85.4871 19.4167 84.892 19.5204 84.332 19.7277C83.7719 19.9351 83.3169 20.246 82.8968 20.6607C82.5118 21.0753 82.1968 21.5936 81.9517 22.1811C81.7417 22.7685 81.6367 23.4596 81.6367 24.2543C81.6367 25.0836 81.7417 25.8092 81.9868 26.3966C82.2318 27.0186 82.5818 27.5369 83.0018 27.917C83.4219 28.3317 83.9819 28.6081 84.577 28.8154C85.1721 29.0227 85.8371 29.0918 86.5372 29.0918C87.2373 29.0918 87.9023 29.0227 88.4624 28.8845C89.0224 28.7463 89.4775 28.6081 89.7925 28.4353L90.0375 28.3317L89.4075 26.9495L89.1624 27.0877C88.9174 27.2259 88.5674 27.3296 88.1473 27.4333C87.7273 27.5369 87.2372 27.606 86.6772 27.606C85.7671 27.606 85.032 27.3641 84.472 26.9149C83.9819 26.5003 83.6669 25.8438 83.5619 25.0145L90.3175 24.1852V23.9433C90.3175 22.4229 89.9325 21.2827 89.1974 20.5225C88.4274 19.7968 87.4123 19.4167 86.1171 19.4167ZM88.3924 23.1486L83.4569 23.7705C83.4919 23.3213 83.5619 22.9067 83.6669 22.5612C83.8069 22.1465 83.9819 21.801 84.227 21.5591C84.472 21.2827 84.752 21.1099 85.032 20.9717C85.3471 20.8335 85.6971 20.7643 86.0471 20.7643C86.3972 20.7643 86.7122 20.7989 87.0272 20.9026C87.3073 21.0062 87.5523 21.1444 87.7623 21.3518C87.9723 21.5591 88.1123 21.8355 88.2523 22.1465C88.3224 22.4229 88.3924 22.7685 88.3924 23.1486Z" fill="#E6ECF6"/>
<path d="M113.488 19.4167C112.858 19.4167 112.263 19.5204 111.703 19.7277C111.143 19.9351 110.688 20.246 110.268 20.6607C109.883 21.0753 109.568 21.5936 109.323 22.1811C109.113 22.7685 109.008 23.4596 109.008 24.2543C109.008 25.0836 109.113 25.8092 109.358 26.3966C109.603 27.0186 109.953 27.5369 110.373 27.917C110.793 28.3317 111.353 28.6081 111.948 28.8154C112.543 29.0227 113.208 29.0918 113.908 29.0918C114.608 29.0918 115.273 29.0227 115.833 28.8845C116.394 28.7463 116.849 28.6081 117.164 28.4353L117.409 28.3317L116.779 26.9495L116.534 27.0877C116.289 27.2259 115.938 27.3296 115.518 27.4333C115.098 27.5369 114.608 27.606 114.048 27.606C113.138 27.606 112.403 27.3641 111.843 26.9149C111.353 26.5003 111.038 25.8438 110.933 25.0145L117.689 24.1852V23.9433C117.689 22.4229 117.304 21.2827 116.569 20.5225C115.798 19.7968 114.783 19.4167 113.488 19.4167ZM115.763 23.1486L110.828 23.7705C110.863 23.3213 110.933 22.9067 111.038 22.5612C111.178 22.1465 111.353 21.801 111.598 21.5591C111.843 21.2827 112.123 21.1099 112.403 20.9717C112.718 20.8335 113.068 20.7643 113.418 20.7643C113.768 20.7643 114.083 20.7989 114.398 20.9026C114.678 21.0062 114.923 21.1444 115.133 21.3518C115.343 21.5591 115.483 21.8355 115.623 22.1465C115.693 22.4229 115.763 22.7685 115.763 23.1486Z" fill="#E6ECF6"/>
<path d="M93.8879 15.8923H91.9277V28.8846H93.8879V15.8923Z" fill="#E6ECF6"/>
<path d="M97.7375 19.6243H95.7773V28.8847H97.7375V19.6243Z" fill="#E6ECF6"/>
<path d="M96.7571 16.6873C96.4771 16.6873 96.1971 16.7909 96.0221 16.9982C95.812 17.2056 95.707 17.4474 95.707 17.7584C95.707 18.0349 95.812 18.3113 96.0221 18.5186C96.2321 18.7259 96.4771 18.8296 96.7571 18.8296C97.0372 18.8296 97.3172 18.7259 97.4922 18.5186C97.7022 18.3113 97.8072 18.0694 97.8072 17.7584C97.8072 17.482 97.7022 17.2056 97.4922 16.9982C97.3172 16.7909 97.0722 16.6873 96.7571 16.6873Z" fill="#E6ECF6"/>
<path d="M106.698 20.6954C106.278 20.2807 105.753 19.9697 105.158 19.7279C104.563 19.5205 103.863 19.3823 103.092 19.3823C102.357 19.3823 101.727 19.4514 101.167 19.5551C100.607 19.6933 100.152 19.8315 99.8021 20.0043L99.6621 20.0734V32.6165H101.587V28.9538C101.727 28.9883 101.902 29.0229 102.112 29.0229C102.462 29.0574 102.812 29.092 103.127 29.092C103.863 29.092 104.528 28.9883 105.123 28.7464C105.718 28.5046 106.243 28.1936 106.663 27.7444C107.083 27.2952 107.433 26.7769 107.643 26.1549C107.888 25.5329 107.993 24.8418 107.993 24.0817C107.993 23.3906 107.888 22.7341 107.678 22.1812C107.433 21.5938 107.118 21.11 106.698 20.6954ZM105.998 24.1853C105.998 25.291 105.718 26.1894 105.158 26.8114C104.598 27.4334 103.828 27.7444 102.812 27.7444C102.567 27.7444 102.287 27.7098 102.042 27.6753C101.867 27.6407 101.727 27.6407 101.622 27.6062V20.9718C101.762 20.9027 101.937 20.8681 102.112 20.8336C102.392 20.7645 102.707 20.7299 103.057 20.7299C103.617 20.7299 104.073 20.799 104.458 20.9718C104.843 21.11 105.123 21.3519 105.368 21.6283C105.613 21.9048 105.788 22.2849 105.893 22.6995C105.928 23.1487 105.998 23.6325 105.998 24.1853Z" fill="#E6ECF6"/>
</svg>
